# xmcd CD database file
#
# Track frame offsets:
#	150
#	5162
#	11531
#	25856
#	33107
#	42364
#	57122
#	73408
#	87277
#	96816
#
# Disc length: 1477 seconds
#
# Revision: 0
# Processed by: cddbd v1.5.2PL0 Copyright (c) Steve Scherf et al.
# Submitted via: CDex 1.70beta2
#
DISCID=7905c30a
DTITLE=Guillermo Di Pietro - Variaciones sobre Spinetta
DYEAR=2007
DGENRE=Jazz
TTITLE0=Para ir
TTITLE1=Por
TTITLE2=Laura va
TTITLE3=Preciosa dama azul
TTITLE4=Plegaria
TTITLE5=Ekathé
TTITLE6=Durazno sangrando
TTITLE7=Jazmin
TTITLE8=Alma de diamante
TTITLE9=Los libros
EXTD=YEAR: 2007
EXTT0=
EXTT1=
EXTT2=
EXTT3=
EXTT4=
EXTT5=
EXTT6=
EXTT7=
EXTT8=
EXTT9=
PLAYORDER=
